<svg width="351" height="368" viewBox="0 0 351 368" fill="none" xmlns="http://www.w3.org/2000/svg">
    <g id="Group 4">
        <g id="Group 2.2">
            <path id="Rectangle 3" d="M279.806 123.514L350.404 139.18L338.454 193.133C334.136 212.63 314.832 224.928 295.336 220.602C275.841 216.276 263.538 196.964 267.856 177.467L279.806 123.514Z" stroke="#E0D3C0"/>
            <line id="Line 4" y1="-0.5" x2="114.881" y2="-0.5" transform="matrix(-0.216239 0.97634 -0.976252 -0.21664 295.678 220.533)" stroke="#E0D3C0"/>
            <line id="Line 3" y1="-0.5" x2="29.3263" y2="-0.5" transform="matrix(0.976252 0.21664 -0.216239 0.97634 256.383 330.146)" stroke="#E0D3C0"/>
        </g>
        <g id="Group 2.1">
            <path id="Rectangle 3_2" d="M139.134 0.575758L261.07 21.0006L245.534 113.926C239.905 147.599 208.045 170.324 174.374 164.684C140.702 159.044 117.969 127.174 123.599 93.501L139.134 0.575758Z" stroke="#E0D3C0"/>
            <line id="Line 4_2" y1="-0.5" x2="195.199" y2="-0.5" transform="matrix(-0.164892 0.986312 -0.98626 -0.165203 175.005 164.191)" stroke="#E0D3C0"/>
            <line id="Line 3_2" y1="-0.5" x2="49.8537" y2="-0.5" transform="matrix(0.98626 0.165203 -0.164892 0.986312 118.054 353.677)" stroke="#E0D3C0"/>
        </g>
        <g id="Group 2">
            <path id="Rectangle 3_3" d="M0.5 81.2219L92.9732 81.2219L92.9732 150.945C92.9732 176.48 72.2724 197.181 46.7366 197.181C21.2008 197.181 0.5 176.48 0.5 150.945L0.5 81.2219Z" stroke="#E0D3C0"/>
            <line id="Line 4_3" x1="47.6429" y1="196.869" x2="47.6429" y2="342.255" stroke="#E0D3C0"/>
            <line id="Line 3_3" x1="28.4484" y1="342.568" x2="65.8376" y2="342.568" stroke="#E0D3C0"/>
        </g>
    </g>
</svg>
