<svg width="449" height="449" viewBox="0 0 449 449" fill="none" xmlns="http://www.w3.org/2000/svg">
    <circle cx="192.664" cy="257.326" r="133.605" transform="rotate(135 192.664 257.326)" stroke="#D7DBDE"/>
    <circle cx="193.507" cy="256.482" r="84.6962" transform="rotate(135 193.507 256.482)" stroke="#D7DBDE"/>
    <path d="M334.953 146.468C337.777 149.179 338.977 153.21 337.939 156.994C333.76 172.222 340.9 193.152 357.348 209.6C378.625 230.877 407.409 236.589 421.638 222.359C435.869 208.13 430.156 179.346 408.879 158.069C392.431 141.621 371.501 134.481 356.273 138.659C352.489 139.698 348.458 138.497 345.748 135.673L239.308 24.7845C236.49 21.8479 231.802 21.8077 228.915 24.6949L223.974 29.6355C221.087 32.5227 221.128 37.2107 224.064 40.0291L334.953 146.468Z" stroke="#D7DBDE"/>
</svg>
