<svg width="146" height="150" viewBox="0 0 146 150" fill="none" xmlns="http://www.w3.org/2000/svg">
    <circle cx="119" cy="28" r="4" fill="white"/>
    <circle cx="140" cy="6" r="6" fill="white"/>
    <path fill-rule="evenodd" clip-rule="evenodd" d="M64.8544 122.233C79.3769 120.771 105.829 100.885 91.5654 64.6221L97.53 56.1414L90.2687 62.575L94.6773 50L87.1568 58.4807C83.5262 54.3867 73.3605 47.5435 61.7425 52.9243C54.4863 57.1262 51.2344 65.6765 49.4072 70.4807C48.8183 72.0293 48.3773 73.1887 47.998 73.6877C47.8105 73.9346 47.5325 74.4011 47.1551 75.0349C44.4016 79.6589 36.3526 93.1753 19.4718 95.0359C9.8194 95.0359 3.134 88.0173 0.54071 85.093C4.17133 97.4731 18.2789 122.233 45.6641 122.233C45.7614 122.782 45.874 123.412 45.9984 124.107L46.0213 124.235C46.9595 129.479 48.5379 138.302 49.2947 144.276L52.9253 123.11H57.8525L61.2238 143.106L64.8544 122.233ZM36.8053 102.542C43.042 106.128 50.1934 107 57.1471 106.28C53.7162 108.035 49.2553 109.61 43.3189 111.097C62.175 116.733 74.9566 112.178 86.2411 93.5137C86.2412 93.5137 85.9988 93.6191 85.5814 93.7886C83.7387 94.4976 78.3865 96.1543 74.0269 93.5117C67.5979 89.6145 65.6531 84.8228 65.6531 84.8228C60.0693 96.1294 46.4319 101.773 36.8053 102.542ZM74.4494 65.4976L80.414 57.3091C79.3767 57.5042 77.2502 58.2449 76.0054 59.6487C74.7606 61.0522 74.363 64.1328 74.4494 65.4976ZM62.5204 143.983C62.7278 143.983 65.7188 144.178 67.1883 144.275L65.8917 147.784L62.5204 143.983ZM61.7424 144.275L62.261 149.832L64.8543 148.077L61.7424 144.275ZM58.3711 148.077L60.9644 144.275L61.2237 149.539L58.3711 148.077ZM54.4812 144.86L53.4438 147.784L49.5539 144.86H54.4812ZM52.9252 148.077L49.5539 145.737L49.8132 149.832L52.9252 148.077ZM49.0352 145.445V149.832L46.4419 148.954L49.0352 145.445Z" fill="white"/>
</svg>
